<svg id="visual" viewBox="0 0 960 540" width="960" height="540" xmlns="http://www.w3.org/2000/svg" xmlns:xlink="http://www.w3.org/1999/xlink" version="1.1"><g><g transform="translate(583 223)"><path d="M0 -12.8L11.1 -6.4L11.1 6.4L0 12.8L-11.1 6.4L-11.1 -6.4Z" fill="#4d96e310"></path></g><g transform="translate(287 288)"><path d="M0 -12L10.4 -6L10.4 6L0 12L-10.4 6L-10.4 -6Z" fill="#4d96e310"></path></g><g transform="translate(627 248)"><path d="M0 -12L10.4 -6L10.4 6L0 12L-10.4 6L-10.4 -6Z" fill="#4d96e310"></path></g><g transform="translate(638 145)"><path d="M0 -12L10.4 -6L10.4 6L0 12L-10.4 6L-10.4 -6Z" fill="#4d96e310"></path></g><g transform="translate(162 435)"><path d="M0 -12L10.4 -6L10.4 6L0 12L-10.4 6L-10.4 -6Z" fill="#4d96e310"></path></g><g transform="translate(224 369)"><path d="M0 -12L10.4 -6L10.4 6L0 12L-10.4 6L-10.4 -6Z" fill="#4d96e310"></path></g><g transform="translate(211 97)"><path d="M0 -12L10.4 -6L10.4 6L0 12L-10.4 6L-10.4 -6Z" fill="#4d96e310"></path></g><g transform="translate(457 481)"><path d="M0 -12L10.4 -6L10.4 6L0 12L-10.4 6L-10.4 -6Z" fill="#4d96e310"></path></g><g transform="translate(903 213)"><path d="M0 -12L10.4 -6L10.4 6L0 12L-10.4 6L-10.4 -6Z" fill="#4d96e310"></path></g><g transform="translate(489 99)"><path d="M0 -12L10.4 -6L10.4 6L0 12L-10.4 6L-10.4 -6Z" fill="#4d96e310"></path></g><g transform="translate(29 240)"><path d="M0 -12L10.4 -6L10.4 6L0 12L-10.4 6L-10.4 -6Z" fill="#4d96e310"></path></g><g transform="translate(577 450)"><path d="M0 -12L10.4 -6L10.4 6L0 12L-10.4 6L-10.4 -6Z" fill="#4d96e310"></path></g><g transform="translate(631 489)"><path d="M0 -12L10.4 -6L10.4 6L0 12L-10.4 6L-10.4 -6Z" fill="#4d96e310"></path></g><g transform="translate(446 73)"><path d="M0 -12L10.4 -6L10.4 6L0 12L-10.4 6L-10.4 -6Z" fill="#4d96e310"></path></g><g transform="translate(273 319)"><path d="M0 -12L10.4 -6L10.4 6L0 12L-10.4 6L-10.4 -6Z" fill="#4d96e310"></path></g><g transform="translate(945 527)"><path d="M0 -12L10.4 -6L10.4 6L0 12L-10.4 6L-10.4 -6Z" fill="#4d96e310"></path></g></g></svg>