<svg id="visual" viewBox="0 0 960 540" width="960" height="540" xmlns="http://www.w3.org/2000/svg" xmlns:xlink="http://www.w3.org/1999/xlink" version="1.1"><g stroke-width="1" stroke-linejoin="bevel"><path d="M519.9 282L527.9 323.5L580.8 312.5Z" fill="#44647b" stroke="#44647b"></path><path d="M580.8 312.5L576.8 264L519.9 282Z" fill="#6189a2" stroke="#6189a2"></path><path d="M576.8 264L526.9 191.5L519.9 282Z" fill="#577c95" stroke="#577c95"></path><path d="M422.1 266L438.1 301.5L519.9 282Z" fill="#7fb0ca" stroke="#7fb0ca"></path><path d="M519.9 282L438.1 301.5L527.9 323.5Z" fill="#324c62" stroke="#324c62"></path><path d="M676.6 257L612.8 197.5L576.8 264Z" fill="#577c95" stroke="#577c95"></path><path d="M576.8 264L612.8 197.5L526.9 191.5Z" fill="#44647b" stroke="#44647b"></path><path d="M493.9 424L560.8 417L527.9 323.5Z" fill="#75a3bd" stroke="#75a3bd"></path><path d="M527.9 323.5L560.8 417L580.8 312.5Z" fill="#324c62" stroke="#324c62"></path><path d="M580.8 312.5L676.6 257L576.8 264Z" fill="#3b586e" stroke="#3b586e"></path><path d="M437.1 219.5L422.1 266L519.9 282Z" fill="#4e7088" stroke="#4e7088"></path><path d="M700.6 345.5L676.6 257L580.8 312.5Z" fill="#577c95" stroke="#577c95"></path><path d="M526.9 191.5L437.1 219.5L519.9 282Z" fill="#7fb0ca" stroke="#7fb0ca"></path><path d="M428.1 465.5L471.1 411L377.2 434.5Z" fill="#324c62" stroke="#324c62"></path><path d="M438.1 301.5L471.1 411L527.9 323.5Z" fill="#6189a2" stroke="#6189a2"></path><path d="M471.1 411L493.9 424L527.9 323.5Z" fill="#75a3bd" stroke="#75a3bd"></path><path d="M696.6 378L700.6 345.5L580.8 312.5Z" fill="#6189a2" stroke="#6189a2"></path><path d="M754.5 256L693.6 228.5L676.6 257Z" fill="#4e7088" stroke="#4e7088"></path><path d="M676.6 257L693.6 228.5L612.8 197.5Z" fill="#577c95" stroke="#577c95"></path><path d="M560.8 417L696.6 378L580.8 312.5Z" fill="#7fb0ca" stroke="#7fb0ca"></path><path d="M437.1 219.5L385.2 263L422.1 266Z" fill="#93cbe5" stroke="#93cbe5"></path><path d="M422.1 266L385.2 263L438.1 301.5Z" fill="#75a3bd" stroke="#75a3bd"></path><path d="M684.6 145L620.8 133L612.8 197.5Z" fill="#89bdd7" stroke="#89bdd7"></path><path d="M612.8 197.5L620.8 133L526.9 191.5Z" fill="#75a3bd" stroke="#75a3bd"></path><path d="M526.9 191.5L449.1 103.5L437.1 219.5Z" fill="#324c62" stroke="#324c62"></path><path d="M620.8 133L541.9 102L526.9 191.5Z" fill="#7fb0ca" stroke="#7fb0ca"></path><path d="M437.1 219.5L338.2 188.5L385.2 263Z" fill="#6b96af" stroke="#6b96af"></path><path d="M628.6 498.5L715.5 403L696.6 378Z" fill="#577c95" stroke="#577c95"></path><path d="M696.6 378L750.5 342.5L700.6 345.5Z" fill="#75a3bd" stroke="#75a3bd"></path><path d="M700.6 345.5L754.5 256L676.6 257Z" fill="#324c62" stroke="#324c62"></path><path d="M628.6 498.5L696.6 378L560.8 417Z" fill="#93cbe5" stroke="#93cbe5"></path><path d="M514.9 511.5L561.8 494.5L493.9 424Z" fill="#7fb0ca" stroke="#7fb0ca"></path><path d="M493.9 424L561.8 494.5L560.8 417Z" fill="#6b96af" stroke="#6b96af"></path><path d="M714.5 169.5L684.6 145L693.6 228.5Z" fill="#75a3bd" stroke="#75a3bd"></path><path d="M693.6 228.5L684.6 145L612.8 197.5Z" fill="#4e7088" stroke="#4e7088"></path><path d="M620.8 133L573.8 51.5L541.9 102Z" fill="#44647b" stroke="#44647b"></path><path d="M715.5 403L750.5 342.5L696.6 378Z" fill="#3b586e" stroke="#3b586e"></path><path d="M377.2 434.5L471.1 411L438.1 301.5Z" fill="#6189a2" stroke="#6189a2"></path><path d="M471.1 411L428.1 465.5L493.9 424Z" fill="#44647b" stroke="#44647b"></path><path d="M754.5 256L714.5 169.5L693.6 228.5Z" fill="#89bdd7" stroke="#89bdd7"></path><path d="M750.5 342.5L754.5 256L700.6 345.5Z" fill="#89bdd7" stroke="#89bdd7"></path><path d="M561.8 494.5L628.6 498.5L560.8 417Z" fill="#75a3bd" stroke="#75a3bd"></path><path d="M428.1 465.5L514.9 511.5L493.9 424Z" fill="#6189a2" stroke="#6189a2"></path><path d="M561.8 494.5L586.8 540L628.6 498.5Z" fill="#89bdd7" stroke="#89bdd7"></path><path d="M541.9 102L449.1 103.5L526.9 191.5Z" fill="#44647b" stroke="#44647b"></path><path d="M298.4 250L331.2 315.5L385.2 263Z" fill="#75a3bd" stroke="#75a3bd"></path><path d="M385.2 263L331.2 315.5L438.1 301.5Z" fill="#75a3bd" stroke="#75a3bd"></path><path d="M331.2 398L377.2 434.5L438.1 301.5Z" fill="#75a3bd" stroke="#75a3bd"></path><path d="M803.3 394L772.3 323.5L750.5 342.5Z" fill="#324c62" stroke="#324c62"></path><path d="M750.5 342.5L772.3 323.5L754.5 256Z" fill="#75a3bd" stroke="#75a3bd"></path><path d="M449.1 103.5L394.2 117L437.1 219.5Z" fill="#6189a2" stroke="#6189a2"></path><path d="M394.2 117L338.2 188.5L437.1 219.5Z" fill="#6b96af" stroke="#6b96af"></path><path d="M406.1 108L394.2 117L449.1 103.5Z" fill="#75a3bd" stroke="#75a3bd"></path><path d="M331.2 315.5L331.2 398L438.1 301.5Z" fill="#93cbe5" stroke="#93cbe5"></path><path d="M514.9 511.5L586.8 540L561.8 494.5Z" fill="#44647b" stroke="#44647b"></path><path d="M630.6 32.5L620.8 133L684.6 145Z" fill="#89bdd7" stroke="#89bdd7"></path><path d="M630.6 32.5L573.8 51.5L620.8 133Z" fill="#93cbe5" stroke="#93cbe5"></path><path d="M541.9 102L486.9 45.5L449.1 103.5Z" fill="#3b586e" stroke="#3b586e"></path><path d="M449.1 103.5L373.2 34.5L406.1 108Z" fill="#93cbe5" stroke="#93cbe5"></path><path d="M428.1 465.5L485.9 540L514.9 511.5Z" fill="#75a3bd" stroke="#75a3bd"></path><path d="M514.9 511.5L485.9 540L586.8 540Z" fill="#93cbe5" stroke="#93cbe5"></path><path d="M444.1 540L485.9 540L428.1 465.5Z" fill="#324c62" stroke="#324c62"></path><path d="M444.1 540L428.1 465.5L372.2 540Z" fill="#44647b" stroke="#44647b"></path><path d="M394.2 117L333.4 164.5L338.2 188.5Z" fill="#324c62" stroke="#324c62"></path><path d="M338.2 188.5L298.4 250L385.2 263Z" fill="#3b586e" stroke="#3b586e"></path><path d="M247.5 161L298.4 250L338.2 188.5Z" fill="#7fb0ca" stroke="#7fb0ca"></path><path d="M331.2 315.5L295.4 377L331.2 398Z" fill="#3b586e" stroke="#3b586e"></path><path d="M573.8 51.5L486.9 45.5L541.9 102Z" fill="#7fb0ca" stroke="#7fb0ca"></path><path d="M373.2 34.5L331.4 96L394.2 117Z" fill="#6189a2" stroke="#6189a2"></path><path d="M333.4 486.5L428.1 465.5L377.2 434.5Z" fill="#93cbe5" stroke="#93cbe5"></path><path d="M262.4 361.5L295.4 377L331.2 315.5Z" fill="#89bdd7" stroke="#89bdd7"></path><path d="M331.2 398L333.4 486.5L377.2 434.5Z" fill="#4e7088" stroke="#4e7088"></path><path d="M772.3 323.5L818.3 270L754.5 256Z" fill="#4e7088" stroke="#4e7088"></path><path d="M814.3 165L756.5 117L714.5 169.5Z" fill="#93cbe5" stroke="#93cbe5"></path><path d="M855.2 297.5L818.3 270L772.3 323.5Z" fill="#4e7088" stroke="#4e7088"></path><path d="M753.5 511.5L803.3 394L715.5 403Z" fill="#6b96af" stroke="#6b96af"></path><path d="M715.5 403L803.3 394L750.5 342.5Z" fill="#75a3bd" stroke="#75a3bd"></path><path d="M684.6 540L715.5 403L628.6 498.5Z" fill="#89bdd7" stroke="#89bdd7"></path><path d="M814.3 165L714.5 169.5L754.5 256Z" fill="#3b586e" stroke="#3b586e"></path><path d="M714.5 169.5L756.5 117L684.6 145Z" fill="#3b586e" stroke="#3b586e"></path><path d="M586.8 540L684.6 540L628.6 498.5Z" fill="#6189a2" stroke="#6189a2"></path><path d="M725.5 60.5L630.6 32.5L684.6 145Z" fill="#89bdd7" stroke="#89bdd7"></path><path d="M573.8 51.5L519.9 0L486.9 45.5Z" fill="#577c95" stroke="#577c95"></path><path d="M242.5 444L333.4 486.5L331.2 398Z" fill="#577c95" stroke="#577c95"></path><path d="M869.2 209.5L830.3 209.5L818.3 270Z" fill="#7fb0ca" stroke="#7fb0ca"></path><path d="M818.3 270L830.3 209.5L754.5 256Z" fill="#93cbe5" stroke="#93cbe5"></path><path d="M254.5 297.5L262.4 361.5L331.2 315.5Z" fill="#577c95" stroke="#577c95"></path><path d="M295.4 377L242.5 444L331.2 398Z" fill="#89bdd7" stroke="#89bdd7"></path><path d="M752.5 0L725.5 60.5L821.3 30.5Z" fill="#89bdd7" stroke="#89bdd7"></path><path d="M756.5 117L725.5 60.5L684.6 145Z" fill="#6189a2" stroke="#6189a2"></path><path d="M684.6 540L753.5 511.5L715.5 403Z" fill="#3b586e" stroke="#3b586e"></path><path d="M225.5 254L254.5 297.5L298.4 250Z" fill="#75a3bd" stroke="#75a3bd"></path><path d="M298.4 250L254.5 297.5L331.2 315.5Z" fill="#3b586e" stroke="#3b586e"></path><path d="M830.3 209.5L814.3 165L754.5 256Z" fill="#3b586e" stroke="#3b586e"></path><path d="M394.2 117L331.4 96L333.4 164.5Z" fill="#6b96af" stroke="#6b96af"></path><path d="M247.5 161L225.5 254L298.4 250Z" fill="#4e7088" stroke="#4e7088"></path><path d="M373.2 34.5L394.2 117L406.1 108Z" fill="#7fb0ca" stroke="#7fb0ca"></path><path d="M605.8 0L519.9 0L573.8 51.5Z" fill="#93cbe5" stroke="#93cbe5"></path><path d="M428.1 0L373.2 34.5L449.1 103.5Z" fill="#6b96af" stroke="#6b96af"></path><path d="M333.4 486.5L372.2 540L428.1 465.5Z" fill="#7fb0ca" stroke="#7fb0ca"></path><path d="M662.6 0L605.8 0L630.6 32.5Z" fill="#75a3bd" stroke="#75a3bd"></path><path d="M630.6 32.5L605.8 0L573.8 51.5Z" fill="#93cbe5" stroke="#93cbe5"></path><path d="M863.2 379L855.2 297.5L772.3 323.5Z" fill="#4e7088" stroke="#4e7088"></path><path d="M863.2 379L772.3 323.5L803.3 394Z" fill="#7fb0ca" stroke="#7fb0ca"></path><path d="M428.1 0L449.1 103.5L486.9 45.5Z" fill="#93cbe5" stroke="#93cbe5"></path><path d="M725.5 60.5L662.6 0L630.6 32.5Z" fill="#6b96af" stroke="#6b96af"></path><path d="M753.5 511.5L836.3 444.5L803.3 394Z" fill="#7fb0ca" stroke="#7fb0ca"></path><path d="M519.9 0L428.1 0L486.9 45.5Z" fill="#6b96af" stroke="#6b96af"></path><path d="M836.3 444.5L863.2 379L803.3 394Z" fill="#4e7088" stroke="#4e7088"></path><path d="M247.5 161L338.2 188.5L333.4 164.5Z" fill="#577c95" stroke="#577c95"></path><path d="M254.5 297.5L137.7 379L262.4 361.5Z" fill="#6b96af" stroke="#6b96af"></path><path d="M897.2 275L818.3 270L855.2 297.5Z" fill="#3b586e" stroke="#3b586e"></path><path d="M897.2 275L869.2 209.5L818.3 270Z" fill="#324c62" stroke="#324c62"></path><path d="M830.3 209.5L869.2 209.5L814.3 165Z" fill="#7fb0ca" stroke="#7fb0ca"></path><path d="M821.3 30.5L725.5 60.5L756.5 117Z" fill="#89bdd7" stroke="#89bdd7"></path><path d="M331.4 96L247.5 161L333.4 164.5Z" fill="#577c95" stroke="#577c95"></path><path d="M229.5 79.5L247.5 161L331.4 96Z" fill="#75a3bd" stroke="#75a3bd"></path><path d="M753.5 511.5L831.3 540L836.3 444.5Z" fill="#75a3bd" stroke="#75a3bd"></path><path d="M684.6 540L777.5 540L753.5 511.5Z" fill="#4e7088" stroke="#4e7088"></path><path d="M242.5 444L319.4 540L333.4 486.5Z" fill="#3b586e" stroke="#3b586e"></path><path d="M333.4 486.5L319.4 540L372.2 540Z" fill="#75a3bd" stroke="#75a3bd"></path><path d="M242.5 444L295.4 377L262.4 361.5Z" fill="#93cbe5" stroke="#93cbe5"></path><path d="M137.7 379L242.5 444L262.4 361.5Z" fill="#89bdd7" stroke="#89bdd7"></path><path d="M332.2 0L315.4 50.5L373.2 34.5Z" fill="#93cbe5" stroke="#93cbe5"></path><path d="M373.2 34.5L315.4 50.5L331.4 96Z" fill="#324c62" stroke="#324c62"></path><path d="M863.2 379L897.2 275L855.2 297.5Z" fill="#93cbe5" stroke="#93cbe5"></path><path d="M821.3 30.5L756.5 117L814.3 165Z" fill="#3b586e" stroke="#3b586e"></path><path d="M725.5 60.5L752.5 0L662.6 0Z" fill="#89bdd7" stroke="#89bdd7"></path><path d="M428.1 0L332.2 0L373.2 34.5Z" fill="#75a3bd" stroke="#75a3bd"></path><path d="M229.5 79.5L195.5 181.5L247.5 161Z" fill="#75a3bd" stroke="#75a3bd"></path><path d="M777.5 540L831.3 540L753.5 511.5Z" fill="#577c95" stroke="#577c95"></path><path d="M960 430L960 309.5L863.2 379Z" fill="#324c62" stroke="#324c62"></path><path d="M863.2 379L960 309.5L897.2 275Z" fill="#6b96af" stroke="#6b96af"></path><path d="M247.5 161L195.5 181.5L225.5 254Z" fill="#44647b" stroke="#44647b"></path><path d="M114.7 333.5L137.7 379L254.5 297.5Z" fill="#7fb0ca" stroke="#7fb0ca"></path><path d="M229.5 79.5L331.4 96L315.4 50.5Z" fill="#6189a2" stroke="#6189a2"></path><path d="M332.2 0L322.4 0L315.4 50.5Z" fill="#6b96af" stroke="#6b96af"></path><path d="M891.2 122L821.3 30.5L814.3 165Z" fill="#577c95" stroke="#577c95"></path><path d="M891.2 122L814.3 165L869.2 209.5Z" fill="#324c62" stroke="#324c62"></path><path d="M960 171L891.2 122L869.2 209.5Z" fill="#75a3bd" stroke="#75a3bd"></path><path d="M190.5 0L229.5 79.5L315.4 50.5Z" fill="#44647b" stroke="#44647b"></path><path d="M880.2 0L819.3 0L821.3 30.5Z" fill="#324c62" stroke="#324c62"></path><path d="M821.3 30.5L819.3 0L752.5 0Z" fill="#577c95" stroke="#577c95"></path><path d="M960 70.5L898.2 87.5L891.2 122Z" fill="#6b96af" stroke="#6b96af"></path><path d="M891.2 122L898.2 87.5L821.3 30.5Z" fill="#3b586e" stroke="#3b586e"></path><path d="M145.7 123L159.7 175.5L195.5 181.5Z" fill="#7fb0ca" stroke="#7fb0ca"></path><path d="M195.5 181.5L129.7 272L225.5 254Z" fill="#324c62" stroke="#324c62"></path><path d="M918.2 482.5L863.2 379L836.3 444.5Z" fill="#6b96af" stroke="#6b96af"></path><path d="M897.2 275L960 238.5L869.2 209.5Z" fill="#89bdd7" stroke="#89bdd7"></path><path d="M960 309.5L960 284L897.2 275Z" fill="#89bdd7" stroke="#89bdd7"></path><path d="M831.3 540L918.2 482.5L836.3 444.5Z" fill="#6b96af" stroke="#6b96af"></path><path d="M242.5 444L216.5 540L319.4 540Z" fill="#93cbe5" stroke="#93cbe5"></path><path d="M182.5 511.5L216.5 540L242.5 444Z" fill="#44647b" stroke="#44647b"></path><path d="M960 284L960 238.5L897.2 275Z" fill="#324c62" stroke="#324c62"></path><path d="M129.7 272L254.5 297.5L225.5 254Z" fill="#75a3bd" stroke="#75a3bd"></path><path d="M159.7 175.5L129.7 272L195.5 181.5Z" fill="#93cbe5" stroke="#93cbe5"></path><path d="M111.7 461.5L182.5 511.5L242.5 444Z" fill="#75a3bd" stroke="#75a3bd"></path><path d="M960 238.5L960 171L869.2 209.5Z" fill="#4e7088" stroke="#4e7088"></path><path d="M918.2 482.5L960 430L863.2 379Z" fill="#3b586e" stroke="#3b586e"></path><path d="M129.7 272L114.7 333.5L254.5 297.5Z" fill="#6189a2" stroke="#6189a2"></path><path d="M105.8 490.5L162.7 540L182.5 511.5Z" fill="#89bdd7" stroke="#89bdd7"></path><path d="M918.2 482.5L960 451.5L960 430Z" fill="#75a3bd" stroke="#75a3bd"></path><path d="M831.3 540L917.2 540L918.2 482.5Z" fill="#75a3bd" stroke="#75a3bd"></path><path d="M918.2 482.5L960 540L960 451.5Z" fill="#44647b" stroke="#44647b"></path><path d="M47.8 178.5L74.8 274L129.7 272Z" fill="#324c62" stroke="#324c62"></path><path d="M74.8 274L86.8 353.5L114.7 333.5Z" fill="#324c62" stroke="#324c62"></path><path d="M229.5 79.5L145.7 123L195.5 181.5Z" fill="#324c62" stroke="#324c62"></path><path d="M140.7 66.5L145.7 123L229.5 79.5Z" fill="#6189a2" stroke="#6189a2"></path><path d="M960 70.5L880.2 0L898.2 87.5Z" fill="#89bdd7" stroke="#89bdd7"></path><path d="M898.2 87.5L880.2 0L821.3 30.5Z" fill="#75a3bd" stroke="#75a3bd"></path><path d="M111.7 461.5L242.5 444L137.7 379Z" fill="#577c95" stroke="#577c95"></path><path d="M182.5 511.5L162.7 540L216.5 540Z" fill="#6b96af" stroke="#6b96af"></path><path d="M74.8 274L114.7 333.5L129.7 272Z" fill="#44647b" stroke="#44647b"></path><path d="M114.7 333.5L86.8 353.5L137.7 379Z" fill="#324c62" stroke="#324c62"></path><path d="M322.4 0L190.5 0L315.4 50.5Z" fill="#3b586e" stroke="#3b586e"></path><path d="M43.8 401L111.7 461.5L137.7 379Z" fill="#3b586e" stroke="#3b586e"></path><path d="M960 171L960 70.5L891.2 122Z" fill="#89bdd7" stroke="#89bdd7"></path><path d="M190.5 0L140.7 66.5L229.5 79.5Z" fill="#6189a2" stroke="#6189a2"></path><path d="M47.8 178.5L129.7 272L159.7 175.5Z" fill="#75a3bd" stroke="#75a3bd"></path><path d="M47.8 178.5L159.7 175.5L58.8 132Z" fill="#89bdd7" stroke="#89bdd7"></path><path d="M917.2 540L960 540L918.2 482.5Z" fill="#3b586e" stroke="#3b586e"></path><path d="M43.8 401L137.7 379L86.8 353.5Z" fill="#577c95" stroke="#577c95"></path><path d="M0 434.5L105.8 490.5L111.7 461.5Z" fill="#93cbe5" stroke="#93cbe5"></path><path d="M111.7 461.5L105.8 490.5L182.5 511.5Z" fill="#93cbe5" stroke="#93cbe5"></path><path d="M140.7 66.5L100.8 104.5L145.7 123Z" fill="#6b96af" stroke="#6b96af"></path><path d="M58.8 132L0 75.5L0 94Z" fill="#6b96af" stroke="#6b96af"></path><path d="M960 70.5L960 0L880.2 0Z" fill="#324c62" stroke="#324c62"></path><path d="M58.8 132L159.7 175.5L145.7 123Z" fill="#75a3bd" stroke="#75a3bd"></path><path d="M0 312.5L43.8 401L86.8 353.5Z" fill="#6189a2" stroke="#6189a2"></path><path d="M0 312.5L86.8 353.5L74.8 274Z" fill="#4e7088" stroke="#4e7088"></path><path d="M100.8 104.5L58.8 132L145.7 123Z" fill="#4e7088" stroke="#4e7088"></path><path d="M86.8 0L100.8 104.5L140.7 66.5Z" fill="#577c95" stroke="#577c95"></path><path d="M105.8 490.5L79.8 540L162.7 540Z" fill="#44647b" stroke="#44647b"></path><path d="M0 540L79.8 540L105.8 490.5Z" fill="#577c95" stroke="#577c95"></path><path d="M190.5 0L108.7 0L140.7 66.5Z" fill="#4e7088" stroke="#4e7088"></path><path d="M0 240L0 312.5L74.8 274Z" fill="#324c62" stroke="#324c62"></path><path d="M43.8 401L0 434.5L111.7 461.5Z" fill="#6189a2" stroke="#6189a2"></path><path d="M0 240L74.8 274L47.8 178.5Z" fill="#89bdd7" stroke="#89bdd7"></path><path d="M108.7 0L86.8 0L140.7 66.5Z" fill="#44647b" stroke="#44647b"></path><path d="M0 184.5L0 240L47.8 178.5Z" fill="#6189a2" stroke="#6189a2"></path><path d="M0 184.5L47.8 178.5L58.8 132Z" fill="#324c62" stroke="#324c62"></path><path d="M0 94L0 184.5L58.8 132Z" fill="#44647b" stroke="#44647b"></path><path d="M0 312.5L0 412L43.8 401Z" fill="#577c95" stroke="#577c95"></path><path d="M0 412L0 434.5L43.8 401Z" fill="#3b586e" stroke="#3b586e"></path><path d="M0 75.5L58.8 132L100.8 104.5Z" fill="#324c62" stroke="#324c62"></path><path d="M86.8 0L0 75.5L100.8 104.5Z" fill="#75a3bd" stroke="#75a3bd"></path><path d="M0 434.5L0 540L105.8 490.5Z" fill="#577c95" stroke="#577c95"></path><path d="M86.8 0L0 0L0 75.5Z" fill="#324c62" stroke="#324c62"></path></g></svg>